<svg width="104" height="52" viewBox="0 0 104 52" fill="none" xmlns="http://www.w3.org/2000/svg">
<path d="M13.77 34C13.284 34 12.852 33.586 12.852 33.1V24.01L8.424 31.444C8.262 31.678 7.992 31.804 7.704 31.804C7.416 31.804 7.146 31.678 6.966 31.444L2.52 24.01V33.1C2.52 33.586 2.124 34 1.62 34C1.134 34 0.72 33.586 0.72 33.1V20.716C0.72 20.32 0.972 19.978 1.35 19.852C1.71 19.726 2.124 19.87 2.358 20.176L7.704 29.194L13.032 20.176C13.284 19.87 13.68 19.726 14.058 19.852C14.418 19.978 14.67 20.32 14.67 20.716V33.1C14.67 33.586 14.274 34 13.77 34ZM23.4264 34.306C22.4364 34.306 21.4644 34.108 20.5464 33.712C19.6644 33.334 18.8724 32.812 18.1884 32.128C17.5224 31.444 16.9824 30.67 16.6044 29.788C16.2264 28.888 16.0284 27.934 16.0284 26.962C16.0284 25.972 16.2264 25.018 16.6224 24.118C17.0004 23.254 17.5404 22.462 18.2244 21.796C18.9084 21.112 19.7004 20.59 20.5824 20.212C21.5004 19.834 22.4724 19.636 23.4804 19.636C25.4424 19.636 27.2784 20.41 28.6464 21.814C29.3124 22.48 29.8164 23.272 30.1764 24.136C30.5544 25.036 30.7344 25.99 30.7344 26.962C30.7344 27.952 30.5544 28.906 30.1764 29.788C29.8164 30.67 29.2944 31.462 28.6284 32.128C27.2424 33.532 25.4064 34.306 23.4264 34.306ZM23.4804 21.436C22.7244 21.436 21.9864 21.58 21.2844 21.868C20.6004 22.156 20.0064 22.552 19.4844 23.074C18.9624 23.578 18.5484 24.172 18.2784 24.838C17.9724 25.504 17.8284 26.224 17.8284 26.962C17.8284 27.7 17.9724 28.402 18.2604 29.086C18.5484 29.752 18.9444 30.346 19.4664 30.85C20.5284 31.912 21.9324 32.506 23.4264 32.506C24.9204 32.506 26.3064 31.912 27.3504 30.868C27.8544 30.364 28.2324 29.77 28.5204 29.104C28.7904 28.42 28.9344 27.7 28.9344 26.962C28.9344 25.486 28.3764 24.1 27.3684 23.074C26.3424 22.012 24.9564 21.436 23.4804 21.436ZM37.0834 34H37.0654H32.9974C32.4754 34 32.0794 33.586 32.0794 33.1V20.752C32.0794 20.518 32.1694 20.284 32.3494 20.122C32.5114 19.96 32.7634 19.852 32.9974 19.852H37.1194C38.1094 19.852 39.0634 20.05 39.9454 20.41C40.8094 20.77 41.6014 21.292 42.2854 21.94C42.9514 22.588 43.4734 23.344 43.8514 24.208C44.2294 25.09 44.4274 26.008 44.4274 26.962C44.4274 27.898 44.2294 28.798 43.8334 29.662C43.4554 30.508 42.9334 31.264 42.2494 31.912C41.5654 32.578 40.7734 33.082 39.9094 33.442C39.0094 33.802 38.0554 34 37.0834 34ZM33.8974 32.182H37.1194C37.8574 32.164 38.5594 32.02 39.2254 31.75C39.8914 31.48 40.4854 31.102 40.9894 30.616C41.4934 30.13 41.8894 29.554 42.1954 28.924C42.4834 28.294 42.6274 27.646 42.6274 26.962C42.6274 26.26 42.4834 25.576 42.1954 24.928C41.9074 24.298 41.5114 23.722 41.0074 23.236C39.9634 22.21 38.5954 21.652 37.1194 21.652H33.8974V32.182ZM55.3646 32.2C55.8686 32.2 56.2646 32.596 56.2646 33.1C56.2646 33.604 55.8686 34 55.3646 34H46.7606C46.2746 34 45.8606 33.604 45.8606 33.1V20.752C45.8606 20.248 46.2746 19.852 46.7606 19.852H55.1846C55.6886 19.852 56.0846 20.248 56.0846 20.752C56.0846 21.256 55.6886 21.652 55.1846 21.652H47.6606V25.99H54.3206C54.8246 25.99 55.2206 26.404 55.2206 26.89C55.2206 27.394 54.8246 27.79 54.3206 27.79H47.6606V32.2H55.3646ZM67.2123 32.2C67.7163 32.2 68.1123 32.596 68.1123 33.1C68.1123 33.604 67.7163 34 67.2123 34H58.6083C58.1223 34 57.7083 33.604 57.7083 33.1V20.752C57.7083 20.248 58.1223 19.852 58.6083 19.852H67.0323C67.5363 19.852 67.9323 20.248 67.9323 20.752C67.9323 21.256 67.5363 21.652 67.0323 21.652H59.5083V25.99H66.1683C66.6723 25.99 67.0683 26.404 67.0683 26.89C67.0683 27.394 66.6723 27.79 66.1683 27.79H59.5083V32.2H67.2123ZM79.0599 32.2C79.5639 32.2 79.9599 32.596 79.9599 33.1C79.9599 33.604 79.5639 34 79.0599 34H70.4559C69.9699 34 69.5559 33.604 69.5559 33.1V20.752C69.5559 20.248 69.9699 19.852 70.4559 19.852H78.8799C79.3839 19.852 79.7799 20.248 79.7799 20.752C79.7799 21.256 79.3839 21.652 78.8799 21.652H71.3559V25.99H78.0159C78.5199 25.99 78.9159 26.404 78.9159 26.89C78.9159 27.394 78.5199 27.79 78.0159 27.79H71.3559V32.2H79.0599ZM92.0956 33.982H82.2856C81.9436 33.982 81.6376 33.784 81.4756 33.46C81.3316 33.154 81.3676 32.776 81.5836 32.506L90.2236 21.652H82.5736C82.0876 21.652 81.6736 21.256 81.6736 20.752C81.6736 20.248 82.0876 19.852 82.5736 19.852H92.0956C92.4376 19.852 92.7436 20.05 92.9056 20.356C93.0496 20.68 93.0136 21.04 92.7976 21.31L84.1576 32.182H92.0956C92.5816 32.182 92.9956 32.578 92.9956 33.082C92.9956 33.568 92.5816 33.982 92.0956 33.982Z" fill="black"/>
</svg>
