<svg width="24" height="25" viewBox="0 0 24 25" fill="none" xmlns="http://www.w3.org/2000/svg">
<path d="M20.5001 6.01965H3.5" stroke="#FAFAFA" stroke-width="1.5" stroke-linecap="round"/>
<path d="M9.5 11.0197L10 16.0197" stroke="#FAFAFA" stroke-width="1.5" stroke-linecap="round"/>
<path d="M14.5 11.0197L14 16.0197" stroke="#FAFAFA" stroke-width="1.5" stroke-linecap="round"/>
<path d="M6.5 6.01965C6.55588 6.01965 6.58382 6.01965 6.60915 6.01901C7.43259 5.99814 8.15902 5.47456 8.43922 4.69997C8.44784 4.67614 8.45667 4.64964 8.47434 4.59662L8.57143 4.30536C8.65431 4.05673 8.69575 3.93241 8.75071 3.82685C8.97001 3.40572 9.37574 3.11329 9.84461 3.03842C9.96213 3.01965 10.0932 3.01965 10.3553 3.01965H13.6447C13.9068 3.01965 14.0379 3.01965 14.1554 3.03842C14.6243 3.11329 15.03 3.40572 15.2493 3.82685C15.3043 3.93241 15.3457 4.05673 15.4286 4.30536L15.5257 4.59662C15.5433 4.64957 15.5522 4.67616 15.5608 4.69997C15.841 5.47456 16.5674 5.99814 17.3909 6.01901C17.4162 6.01965 17.4441 6.01965 17.5 6.01965" stroke="#FAFAFA" stroke-width="1.5"/>
<path d="M18.3737 15.4188C18.1967 18.0737 18.1082 19.4012 17.2432 20.2104C16.3782 21.0197 15.0478 21.0197 12.387 21.0197H11.6136C8.95284 21.0197 7.62244 21.0197 6.75743 20.2104C5.89242 19.4012 5.80392 18.0737 5.62693 15.4188L5.16699 8.51965M18.8336 8.51965L18.6336 11.5197" stroke="#FAFAFA" stroke-width="1.5" stroke-linecap="round"/>
</svg>
